<svg width="30" height="25" viewBox="0 0 30 25" fill="none" xmlns="http://www.w3.org/2000/svg">
<path fill-rule="evenodd" clip-rule="evenodd" d="M7.57792 21.5016C7.52912 21.6024 7.50272 21.6592 7.48192 21.7472C7.35712 22.2856 7.72752 22.8328 8.31072 22.968C8.89232 23.1032 9.46592 22.7768 9.59152 22.2376C9.61152 22.1504 9.61712 22.0824 9.61392 21.9752C9.67392 21.088 9.06832 19.7072 9.06832 19.7072C9.06832 19.7072 7.92512 20.668 7.57792 21.5016Z" fill="#26A9E0"/>
<path fill-rule="evenodd" clip-rule="evenodd" d="M10.5963 23.4719C10.5467 23.5727 10.5203 23.6295 10.4995 23.7183C10.3755 24.2567 10.7459 24.8031 11.3283 24.9383C11.9107 25.0735 12.4843 24.7471 12.6099 24.2079C12.6299 24.1199 12.6347 24.0535 12.6315 23.9455C12.6915 23.0583 12.0859 21.6775 12.0859 21.6775C12.0859 21.6775 10.9427 22.6391 10.5963 23.4719Z" fill="#26A9E0"/>
<path fill-rule="evenodd" clip-rule="evenodd" d="M13.3138 21.2176C13.265 21.3184 13.2386 21.3752 13.2186 21.4632C13.093 22.0024 13.4642 22.5488 14.0466 22.684C14.6282 22.8192 15.2026 22.4928 15.3282 21.9536C15.3482 21.8664 15.353 21.7992 15.3506 21.6912C15.409 20.804 14.8042 19.4232 14.8042 19.4232C14.8042 19.4232 13.661 20.3848 13.3138 21.2176Z" fill="#26A9E0"/>
<path fill-rule="evenodd" clip-rule="evenodd" d="M19.6877 2.37897C19.7845 2.71817 20.1413 2.91577 20.4797 2.81897L20.5093 2.81097C20.8477 2.71337 21.0461 2.35737 20.9493 2.01817L20.5357 0.571773C20.4381 0.233373 20.0821 0.035773 19.7429 0.132573L19.7141 0.140573C19.3749 0.237373 19.1773 0.594173 19.2741 0.932573L19.6877 2.37897Z" fill="#FF9933"/>
<path fill-rule="evenodd" clip-rule="evenodd" d="M18.16 3.29579L17.0784 2.25019C16.8256 2.00539 16.4176 2.01179 16.1728 2.26539L16.152 2.28699C15.9072 2.54059 15.9136 2.94779 16.1672 3.19339L17.2488 4.23899C17.5016 4.48379 17.9096 4.47659 18.1544 4.22379L18.176 4.20139C18.4208 3.94779 18.4136 3.54059 18.16 3.29579Z" fill="#FF9933"/>
<path fill-rule="evenodd" clip-rule="evenodd" d="M23.1963 2.76531L23.2259 2.77251C23.5675 2.85811 23.9171 2.64851 24.0027 2.30611L24.3675 0.847706C24.4531 0.505306 24.2435 0.155706 23.9011 0.0701056L23.8723 0.0629056C23.5299 -0.0226944 23.1803 0.186906 23.0955 0.529306L22.7299 1.98851C22.6451 2.33011 22.8547 2.67971 23.1963 2.76531Z" fill="#FF9933"/>
<path fill-rule="evenodd" clip-rule="evenodd" d="M22.937 3.8665C20.877 3.3513 18.793 4.4865 18.0762 6.4353C18.117 6.4345 18.1562 6.4321 18.197 6.4321C21.1458 6.4321 23.6186 8.5049 24.2378 11.2705C25.0522 10.7217 25.6754 9.8865 25.9322 8.8593C26.4842 6.6529 25.1426 4.4177 22.937 3.8665Z" fill="#FF9933"/>
<path fill-rule="evenodd" clip-rule="evenodd" d="M29.2697 9.01761L27.8105 8.65281C27.4689 8.56721 27.1193 8.77681 27.0337 9.11841L27.0257 9.14801C26.9401 9.49041 27.1505 9.84001 27.4921 9.92481L28.9513 10.2896C29.2937 10.3752 29.6433 10.1656 29.7281 9.82401L29.7361 9.79441C29.8209 9.45281 29.6113 9.10321 29.2697 9.01761Z" fill="#FF9933"/>
<path fill-rule="evenodd" clip-rule="evenodd" d="M27.5334 2.09576L27.5118 2.07496C27.2582 1.82936 26.851 1.83656 26.6054 2.09016L25.5606 3.17096C25.315 3.42456 25.3222 3.83176 25.5758 4.07736L25.5974 4.09816C25.8502 4.34296 26.2582 4.33656 26.503 4.08296L27.5486 3.00136C27.7934 2.74776 27.787 2.34056 27.5334 2.09576Z" fill="#FF9933"/>
<path fill-rule="evenodd" clip-rule="evenodd" d="M27.7088 12.5286L26.6272 11.483C26.3744 11.2382 25.9664 11.2446 25.7216 11.4982L25.7008 11.5198C25.456 11.7734 25.4624 12.1806 25.716 12.4262L26.7968 13.4718C27.0504 13.7158 27.4584 13.7094 27.7032 13.4566L27.7248 13.4342C27.9696 13.1806 27.9624 12.7734 27.7088 12.5286Z" fill="#FF9933"/>
<path fill-rule="evenodd" clip-rule="evenodd" d="M26.9885 6.43171C27.0853 6.77091 27.4413 6.96851 27.7805 6.87171L29.2261 6.45811C29.5653 6.36131 29.7637 6.00451 29.6669 5.66531L29.6581 5.63651C29.5613 5.29811 29.2053 5.09971 28.8661 5.19731L27.4197 5.61091C27.0813 5.70771 26.8829 6.06371 26.9797 6.40291L26.9885 6.43171Z" fill="#FF9933"/>
<path fill-rule="evenodd" clip-rule="evenodd" d="M18.1967 7.47938C17.7447 7.47938 17.3071 7.53778 16.8895 7.64738C16.1071 5.42898 13.9943 3.84018 11.5095 3.84018C8.46392 3.84018 5.97672 6.22578 5.81352 9.22978C5.62712 9.20578 5.43832 9.18818 5.24552 9.18818C2.87592 9.18818 0.955124 11.109 0.955124 13.4786C0.955124 15.8474 2.87592 17.769 5.24552 17.769H18.1967C20.9247 17.769 23.1503 15.6442 23.3247 12.9602C23.3319 12.8482 23.3415 12.737 23.3415 12.6242C23.3415 9.78178 21.0375 7.47938 18.1967 7.47938Z" fill="#D0D2D3"/>
</svg>
