<svg width="28" height="25" viewBox="0 0 28 25" fill="none" xmlns="http://www.w3.org/2000/svg">
<path fill-rule="evenodd" clip-rule="evenodd" d="M7.32089 20.6751C7.27129 20.7775 7.24489 20.8351 7.22409 20.9239C7.09849 21.4663 7.47129 22.0167 8.05849 22.1535C8.64489 22.2895 9.22249 21.9607 9.34969 21.4175C9.36969 21.3279 9.37449 21.2615 9.37209 21.1535C9.43209 20.2591 8.82169 18.8687 8.82169 18.8687C8.82169 18.8687 7.67049 19.8367 7.32089 20.6751Z" fill="#26A9E0"/>
<path fill-rule="evenodd" clip-rule="evenodd" d="M10.3615 22.6605C10.3119 22.7629 10.2855 22.8205 10.2639 22.9085C10.1391 23.4517 10.5119 24.0029 11.0991 24.1373C11.6855 24.2749 12.2639 23.9453 12.3911 23.4029C12.4103 23.3133 12.4151 23.2461 12.4127 23.1373C12.4719 22.2437 11.8615 20.8541 11.8615 20.8541C11.8615 20.8541 10.7111 21.8213 10.3615 22.6605Z" fill="#26A9E0"/>
<path fill-rule="evenodd" clip-rule="evenodd" d="M13.0994 20.3906C13.0506 20.4906 13.0234 20.5482 13.0026 20.637C12.877 21.1794 13.2506 21.7314 13.837 21.8674C14.4234 22.0034 15.0018 21.6738 15.129 21.1314C15.149 21.0434 15.153 20.9746 15.1506 20.8666C15.2106 19.973 14.601 18.5818 14.601 18.5818C14.601 18.5818 13.449 19.5514 13.0994 20.3906Z" fill="#26A9E0"/>
<path fill-rule="evenodd" clip-rule="evenodd" d="M17.2115 7.14808C16.7803 7.14808 16.3627 7.20408 15.9635 7.30808C15.2171 5.19128 13.2003 3.67368 10.8283 3.67368C7.92193 3.67368 5.54753 5.95128 5.39233 8.81848C5.21393 8.79528 5.03393 8.77928 4.84993 8.77928C2.58833 8.77928 0.75473 10.6121 0.75473 12.8737C0.75473 15.1353 2.58833 16.9689 4.84993 16.9689H17.2115C19.8155 16.9689 21.9395 14.9409 22.1059 12.3793C22.1123 12.2729 22.1219 12.1665 22.1219 12.0585C22.1219 9.34568 19.9235 7.14808 17.2115 7.14808Z" fill="#D0D2D3"/>
<path fill-rule="evenodd" clip-rule="evenodd" d="M27.8389 9.92071C27.7917 9.83671 27.6973 9.78951 27.6013 9.80231C27.3437 9.83671 27.0885 9.85431 26.8421 9.85431C23.7165 9.85431 21.1741 7.31111 21.1741 4.18551C21.1741 2.88631 21.6253 1.61591 22.4453 0.608711C22.5069 0.533511 22.5165 0.428711 22.4685 0.343911C22.4213 0.259111 22.3261 0.212711 22.2309 0.224711C19.2309 0.626311 16.9645 3.19031 16.9149 6.20951C17.0141 6.20471 17.1125 6.20151 17.2117 6.20151C20.4405 6.20151 23.0685 8.82871 23.0685 12.0583C23.0685 12.1911 23.0629 12.3215 23.0541 12.4519C24.9077 12.4519 26.6437 11.6255 27.8157 10.1863C27.8765 10.1103 27.8861 10.0055 27.8389 9.92071Z" fill="#FF9933"/>
</svg>
