<svg width="22" height="26" viewBox="0 0 22 26" fill="none" xmlns="http://www.w3.org/2000/svg">
<path fill-rule="evenodd" clip-rule="evenodd" d="M16.6119 4.25863C16.1807 4.25863 15.7623 4.31463 15.3631 4.41863C14.6175 2.30183 12.5999 0.785034 10.2287 0.785034C7.32233 0.785034 4.94793 3.06183 4.79273 5.92903C4.61433 5.90663 4.43353 5.88983 4.24953 5.88983C1.98873 5.88983 0.155128 7.72263 0.155128 9.98423C0.155128 12.2458 1.98873 14.0794 4.24953 14.0794H16.6119C19.3239 14.0794 21.5223 11.881 21.5223 9.16903C21.5223 6.45703 19.3239 4.25863 16.6119 4.25863Z" fill="#D0D2D3"/>
<path fill-rule="evenodd" clip-rule="evenodd" d="M5.15407 16.1141C5.15407 16.1141 2.05167 17.6429 1.54447 17.9621C1.03647 18.2813 0.842869 18.4293 0.592469 18.7973C-0.193131 19.9517 0.106869 21.5253 1.26207 22.3101C2.41727 23.0949 3.99007 22.7949 4.77407 21.6405C5.03087 21.2645 5.07247 21.0565 5.20367 20.4205C5.33407 19.7845 5.55167 16.3821 5.55167 16.3821C5.57487 16.1109 5.39567 15.9909 5.15407 16.1141Z" fill="#26A9E0"/>
<path fill-rule="evenodd" clip-rule="evenodd" d="M14.4072 19.3082L11.3712 19.3882L13.34 15.6778C13.372 15.6186 13.3648 15.5498 13.3216 15.4946C13.2784 15.4402 13.2048 15.4066 13.124 15.405L9.79524 15.3586C9.69684 15.3658 9.59844 15.4106 9.56484 15.4914L7.03524 21.565C7.01044 21.625 7.02324 21.6906 7.06804 21.7418C7.11284 21.7922 7.18484 21.8226 7.26084 21.8226H7.26244L10.2696 21.805L9.03364 25.725C9.00484 25.817 9.06084 25.913 9.16804 25.9514C9.19924 25.9634 9.23204 25.969 9.26484 25.969C9.34324 25.969 9.41924 25.9378 9.46404 25.8826L14.6136 19.6114C14.6632 19.5514 14.668 19.473 14.624 19.4082C14.5808 19.3442 14.4952 19.3018 14.4072 19.3082Z" fill="#FF9933"/>
<path fill-rule="evenodd" clip-rule="evenodd" d="M18.6432 16.4735C17.0536 16.4735 15.764 17.7623 15.764 19.3527C15.764 20.9423 17.0536 22.2311 18.6432 22.2311C20.2328 22.2311 21.5224 20.9423 21.5224 19.3527C21.5224 17.7623 20.2328 16.4735 18.6432 16.4735Z" fill="#26A9E0"/>
</svg>
