<svg width="23" height="14" viewBox="0 0 23 14" fill="none" xmlns="http://www.w3.org/2000/svg">
<path fill-rule="evenodd" clip-rule="evenodd" d="M1.35761 6.16025H21.0736C21.5936 6.16025 22.02 5.78425 22.02 5.32505C22.02 4.86585 21.5936 4.49065 21.0736 4.49065H1.35761C0.836809 4.49065 0.411209 4.86585 0.411209 5.32505C0.411209 5.78425 0.836809 6.16025 1.35761 6.16025Z" fill="#26A9E0"/>
<path fill-rule="evenodd" clip-rule="evenodd" d="M21.0733 8.2368H1.35727C0.837273 8.2368 0.410873 8.6128 0.410873 9.072C0.410873 9.5312 0.837273 9.9064 1.35727 9.9064H21.0733C21.5941 9.9064 22.0197 9.5312 22.0197 9.072C22.0197 8.6128 21.5941 8.2368 21.0733 8.2368Z" fill="#26A9E0"/>
<path fill-rule="evenodd" clip-rule="evenodd" d="M18.4705 11.9438H3.96015C3.44015 11.9438 3.01375 12.3198 3.01375 12.779C3.01375 13.2374 3.44015 13.6134 3.96015 13.6134H18.4705C18.9913 13.6134 19.4169 13.2374 19.4169 12.779C19.4169 12.3198 18.9913 11.9438 18.4705 11.9438Z" fill="#26A9E0"/>
<path fill-rule="evenodd" clip-rule="evenodd" d="M3.96039 2.49225H18.4708C18.9916 2.49225 19.4172 2.11625 19.4172 1.65705C19.4172 1.19785 18.9916 0.821854 18.4708 0.821854H3.96039C3.44039 0.821854 3.01399 1.19785 3.01399 1.65705C3.01399 2.11625 3.44039 2.49225 3.96039 2.49225Z" fill="#26A9E0"/>
</svg>
