<svg width="25" height="25" viewBox="0 0 25 25" fill="none" xmlns="http://www.w3.org/2000/svg">
<path fill-rule="evenodd" clip-rule="evenodd" d="M6.60408 12.8458C6.60408 16.205 9.32728 18.9282 12.6865 18.9282C16.0457 18.9282 18.7689 16.205 18.7689 12.8458C18.7689 9.48657 16.0457 6.76337 12.6865 6.76337C9.32728 6.76337 6.60408 9.48657 6.60408 12.8458Z" fill="#FF9933"/>
<path fill-rule="evenodd" clip-rule="evenodd" d="M23.6076 11.8771H21.386C20.8652 11.8771 20.4396 12.3027 20.4396 12.8235V12.8683C20.4396 13.3891 20.8652 13.8147 21.386 13.8147H23.6076C24.1284 13.8147 24.554 13.3891 24.554 12.8683V12.8235C24.554 12.3027 24.1284 11.8771 23.6076 11.8771Z" fill="#FF9933"/>
<path fill-rule="evenodd" clip-rule="evenodd" d="M4.93264 12.868V12.8232C4.93264 12.3024 4.50704 11.8768 3.98624 11.8768H1.76464C1.24384 11.8768 0.817444 12.3024 0.817444 12.8232V12.868C0.817444 13.3888 1.24384 13.8144 1.76464 13.8144H3.98624C4.50704 13.8144 4.93264 13.3888 4.93264 12.868Z" fill="#FF9933"/>
<path fill-rule="evenodd" clip-rule="evenodd" d="M18.6397 2.57859L18.6013 2.55619C18.1501 2.29619 17.5685 2.45139 17.3077 2.90259L16.1973 4.82738C15.9365 5.27779 16.0925 5.86018 16.5429 6.12018L16.5821 6.14258C17.0325 6.40258 17.6149 6.24658 17.8749 5.79538L18.9861 3.87139C19.2461 3.42099 19.0901 2.83859 18.6397 2.57859Z" fill="#FF9933"/>
<path fill-rule="evenodd" clip-rule="evenodd" d="M8.82872 19.5715L8.79032 19.5491C8.33912 19.2883 7.75752 19.4443 7.49752 19.8955L6.38632 21.8195C6.12632 22.2707 6.28152 22.8523 6.73272 23.1123L6.77112 23.1355C7.22232 23.3955 7.80392 23.2395 8.06392 22.7883L9.17512 20.8643C9.43512 20.4131 9.27992 19.8315 8.82872 19.5715Z" fill="#FF9933"/>
<path fill-rule="evenodd" clip-rule="evenodd" d="M17.8748 19.8954C17.6148 19.445 17.0324 19.289 16.582 19.549L16.5428 19.5714C16.0924 19.8314 15.9364 20.413 16.1972 20.8642L17.3084 22.789C17.5684 23.2394 18.15 23.3954 18.6012 23.1354L18.6396 23.1122C19.0908 22.8522 19.246 22.2706 18.986 21.8194L17.8748 19.8954Z" fill="#FF9933"/>
<path fill-rule="evenodd" clip-rule="evenodd" d="M7.49745 5.79577C7.75745 6.24697 8.33905 6.40217 8.79025 6.14217L8.82865 6.11977C9.27985 5.85977 9.43505 5.27817 9.17505 4.82697L8.06385 2.90297C7.80385 2.45177 7.22225 2.29577 6.77105 2.55657L6.73265 2.57897C6.28145 2.83897 6.12625 3.42057 6.38625 3.87177L7.49745 5.79577Z" fill="#FF9933"/>
<path fill-rule="evenodd" clip-rule="evenodd" d="M5.63616 7.65674L3.71216 6.54554C3.26096 6.28554 2.67936 6.44154 2.41936 6.89194L2.39696 6.93114C2.13616 7.38154 2.29216 7.96394 2.74336 8.22394L4.66736 9.33514C5.11856 9.59514 5.70016 9.43914 5.96016 8.98874L5.98256 8.94954C6.24336 8.49914 6.08656 7.91674 5.63616 7.65674Z" fill="#FF9933"/>
<path fill-rule="evenodd" clip-rule="evenodd" d="M22.6291 17.4676L20.7043 16.3564C20.2539 16.0964 19.6723 16.2516 19.4123 16.7028L19.3899 16.7412C19.1291 17.1924 19.2851 17.774 19.7355 18.034L21.6603 19.1452C22.1115 19.4052 22.6931 19.25 22.9531 18.7996L22.9755 18.7604C23.2355 18.3092 23.0795 17.7276 22.6291 17.4676Z" fill="#FF9933"/>
<path fill-rule="evenodd" clip-rule="evenodd" d="M5.96039 16.7028C5.69959 16.2524 5.11879 16.0964 4.66759 16.3564L2.74359 17.4676C2.29239 17.7276 2.13639 18.3092 2.39639 18.7604L2.41959 18.7996C2.67959 19.25 3.26119 19.4052 3.71159 19.1452L5.63639 18.0348C6.08679 17.774 6.24359 17.1924 5.98279 16.7412L5.96039 16.7028Z" fill="#FF9933"/>
<path fill-rule="evenodd" clip-rule="evenodd" d="M19.4119 8.98833C19.6719 9.43873 20.2543 9.59473 20.7047 9.33473L22.6287 8.22353C23.0799 7.96353 23.2359 7.38193 22.9759 6.93073L22.9527 6.89233C22.6927 6.44113 22.1111 6.28593 21.6607 6.54593L19.7359 7.65633C19.2847 7.91713 19.1287 8.49873 19.3895 8.94993L19.4119 8.98833Z" fill="#FF9933"/>
<path fill-rule="evenodd" clip-rule="evenodd" d="M12.6638 5.09225H12.7086C13.2294 5.09225 13.655 4.66665 13.655 4.14585V1.92425C13.655 1.40345 13.2294 0.977051 12.7086 0.977051H12.6638C12.143 0.977051 11.7174 1.40345 11.7174 1.92425V4.14585C11.7174 4.66665 12.143 5.09225 12.6638 5.09225Z" fill="#FF9933"/>
<path fill-rule="evenodd" clip-rule="evenodd" d="M12.7084 20.5989H12.6636C12.1428 20.5989 11.7172 21.0245 11.7172 21.5453V23.7677C11.7172 24.2877 12.1428 24.7141 12.6636 24.7141H12.7084C13.2292 24.7141 13.6548 24.2877 13.6548 23.7677V21.5453C13.6548 21.0245 13.2292 20.5989 12.7084 20.5989Z" fill="#FF9933"/>
</svg>
