<svg width="30" height="19" viewBox="0 0 30 19" fill="none" xmlns="http://www.w3.org/2000/svg">
<path fill-rule="evenodd" clip-rule="evenodd" d="M29.2698 9.34262L27.8106 8.97782C27.469 8.89222 27.1194 9.10182 27.0338 9.44422L27.0258 9.47302C26.9402 9.81542 27.1506 10.165 27.4922 10.2506L28.9514 10.6146C29.2938 10.7002 29.6434 10.4906 29.7282 10.149L29.7362 10.1194C29.821 9.77782 29.6114 9.42822 29.2698 9.34262Z" fill="#FF9933"/>
<path fill-rule="evenodd" clip-rule="evenodd" d="M27.5334 2.42071L27.5118 2.39991C27.2582 2.15431 26.851 2.16151 26.6054 2.41511L25.5606 3.49591C25.315 3.74951 25.3222 4.15671 25.5758 4.40231L25.5974 4.42311C25.8502 4.66791 26.2582 4.66151 26.503 4.40791L27.5486 3.32631C27.7934 3.07271 27.787 2.66551 27.5334 2.42071Z" fill="#FF9933"/>
<path fill-rule="evenodd" clip-rule="evenodd" d="M19.6877 2.70392C19.7845 3.04312 20.1413 3.24072 20.4797 3.14392L20.5093 3.13592C20.8477 3.03832 21.0461 2.68232 20.9493 2.34312L20.5357 0.89752C20.4381 0.55832 20.0821 0.36072 19.7429 0.45752L19.7141 0.46552C19.3749 0.56232 19.1773 0.91912 19.2741 1.25752L19.6877 2.70392Z" fill="#FF9933"/>
<path fill-rule="evenodd" clip-rule="evenodd" d="M18.16 3.62071L17.0784 2.57511C16.8256 2.33031 16.4176 2.33671 16.1728 2.59031L16.152 2.61191C15.9072 2.86551 15.9136 3.27271 16.1672 3.51831L17.2488 4.56391C17.5016 4.80871 17.9096 4.80151 18.1544 4.54871L18.176 4.52631C18.4208 4.27271 18.4136 3.86551 18.16 3.62071Z" fill="#FF9933"/>
<path fill-rule="evenodd" clip-rule="evenodd" d="M27.7088 12.8536L26.6272 11.808C26.3744 11.5632 25.9664 11.5696 25.7216 11.8232L25.7008 11.8448C25.456 12.0984 25.4624 12.5056 25.716 12.7512L26.7968 13.7968C27.0504 14.0416 27.4584 14.0344 27.7032 13.7816L27.7248 13.7592C27.9696 13.5056 27.9624 13.0984 27.7088 12.8536Z" fill="#FF9933"/>
<path fill-rule="evenodd" clip-rule="evenodd" d="M26.9885 6.75672C27.0853 7.09592 27.4413 7.29352 27.7805 7.19672L29.2261 6.78312C29.5653 6.68632 29.7637 6.32952 29.6669 5.99032L29.6581 5.96152C29.5613 5.62312 29.2053 5.42472 28.8661 5.52232L27.4197 5.93592C27.0813 6.03272 26.8829 6.38872 26.9797 6.72792L26.9885 6.75672Z" fill="#FF9933"/>
<path fill-rule="evenodd" clip-rule="evenodd" d="M23.1963 3.09032L23.2259 3.09752C23.5675 3.18312 23.9171 2.97352 24.0027 2.63112L24.3675 1.17272C24.4531 0.830318 24.2435 0.480718 23.9011 0.395118L23.8723 0.387918C23.5299 0.302318 23.1803 0.511918 23.0955 0.854318L22.7299 2.31352C22.6451 2.65512 22.8547 3.00472 23.1963 3.09032Z" fill="#FF9933"/>
<path fill-rule="evenodd" clip-rule="evenodd" d="M22.937 4.19145C20.877 3.67625 18.793 4.81145 18.0762 6.76025C18.117 6.75945 18.1562 6.75705 18.197 6.75705C21.1458 6.75705 23.6186 8.82985 24.2378 11.5955C25.0522 11.0467 25.6754 10.2115 25.9322 9.18425C26.4842 6.97785 25.1426 4.74265 22.937 4.19145Z" fill="#FF9933"/>
<path fill-rule="evenodd" clip-rule="evenodd" d="M18.1967 7.8043C17.7447 7.8043 17.3071 7.8627 16.8895 7.9723C16.1071 5.7539 13.9943 4.1651 11.5095 4.1651C8.46392 4.1651 5.97672 6.5507 5.81352 9.5547C5.62712 9.5307 5.43832 9.5131 5.24552 9.5131C2.87592 9.5131 0.955124 11.4339 0.955124 13.8035C0.955124 16.1723 2.87592 18.0939 5.24552 18.0939H18.1967C20.9247 18.0939 23.1503 15.9699 23.3247 13.2851C23.3319 13.1739 23.3415 13.0619 23.3415 12.9491C23.3415 10.1075 21.0375 7.8043 18.1967 7.8043Z" fill="#D0D2D3"/>
</svg>
