<svg width="28" height="18" viewBox="0 0 28 18" fill="none" xmlns="http://www.w3.org/2000/svg">
<path fill-rule="evenodd" clip-rule="evenodd" d="M17.0115 7.49384C16.5803 7.49384 16.1627 7.54984 15.7635 7.65384C15.0171 5.53704 13.0003 4.01944 10.6283 4.01944C7.72191 4.01944 5.34751 6.29704 5.19231 9.16424C5.01391 9.14104 4.83391 9.12504 4.64991 9.12504C2.38831 9.12504 0.55471 10.9578 0.55471 13.2194C0.55471 15.481 2.38831 17.3146 4.64991 17.3146H17.0115C19.6155 17.3146 21.7395 15.2866 21.9059 12.725C21.9123 12.6186 21.9219 12.5122 21.9219 12.4042C21.9219 9.69144 19.7235 7.49384 17.0115 7.49384Z" fill="#D0D2D3"/>
<path fill-rule="evenodd" clip-rule="evenodd" d="M27.6389 10.2665C27.5917 10.1825 27.4973 10.1353 27.4013 10.1481C27.1437 10.1825 26.8885 10.2001 26.6421 10.2001C23.5165 10.2001 20.9741 7.65688 20.9741 4.53128C20.9741 3.23208 21.4253 1.96168 22.2453 0.954482C22.3069 0.879282 22.3165 0.774482 22.2685 0.689682C22.2213 0.605682 22.1261 0.558482 22.0309 0.570482C19.0309 0.972082 16.7645 3.53608 16.7149 6.55528C16.8141 6.55048 16.9125 6.54728 17.0117 6.54728C20.2405 6.54728 22.8685 9.17448 22.8685 12.4041C22.8685 12.5369 22.8629 12.6673 22.8541 12.7977C24.7077 12.7977 26.4437 11.9713 27.6157 10.5321C27.6765 10.4561 27.6861 10.3513 27.6389 10.2665Z" fill="#FF9933"/>
</svg>
