<svg width="22" height="24" viewBox="0 0 22 24" fill="none" xmlns="http://www.w3.org/2000/svg">
<path fill-rule="evenodd" clip-rule="evenodd" d="M16.6115 3.5852C16.1803 3.5852 15.7627 3.6412 15.3635 3.7452C14.6171 1.6284 12.6003 0.111603 10.2283 0.111603C7.32191 0.111603 4.94751 2.3884 4.79231 5.2556C4.61391 5.2332 4.43391 5.2164 4.24911 5.2164C1.98831 5.2164 0.154713 7.0492 0.154713 9.3108C0.154713 11.5724 1.98831 13.4052 4.24911 13.4052H16.6115C19.3235 13.4052 21.5219 11.2076 21.5219 8.4956C21.5219 5.7828 19.3235 3.5852 16.6115 3.5852Z" fill="#D0D2D3"/>
<path fill-rule="evenodd" clip-rule="evenodd" d="M10.2198 21.5883L9.25417 21.2099L10.007 20.4979C10.0734 20.4355 10.0758 20.3307 10.0134 20.2651L9.70937 19.9435C9.64777 19.8779 9.54297 19.8747 9.47737 19.9379L8.79257 20.5859L8.61177 19.6603C8.59497 19.5715 8.50777 19.5123 8.41897 19.5307L7.98537 19.6147C7.89657 19.6323 7.83737 19.7187 7.85497 19.8075L8.03577 20.7339L7.15737 20.3899C7.07257 20.3563 6.97737 20.3987 6.94377 20.4827L6.78297 20.8947C6.75017 20.9779 6.79177 21.0739 6.87577 21.1067L7.84217 21.4851L7.08857 22.1987C7.02297 22.2611 7.01977 22.3659 7.08297 22.4315L7.38617 22.7523C7.44857 22.8179 7.55337 22.8211 7.61897 22.7587L8.30377 22.1099L8.48457 23.0363C8.50137 23.1251 8.58857 23.1827 8.67737 23.1659L9.11097 23.0811C9.19977 23.0643 9.25817 22.9771 9.24137 22.8883L9.06057 21.9635L9.93817 22.3059C10.023 22.3395 10.119 22.2979 10.1518 22.2131L10.3134 21.8019C10.3462 21.7171 10.3038 21.6211 10.2198 21.5883Z" fill="#26A9E0"/>
<path fill-rule="evenodd" clip-rule="evenodd" d="M10.2198 17.1634L9.25417 16.785L10.007 16.0722C10.0734 16.0106 10.0758 15.9058 10.0134 15.8402L9.70937 15.5186C9.64777 15.453 9.54297 15.4498 9.47737 15.513L8.79257 16.161L8.61177 15.2346C8.59497 15.1466 8.50777 15.0874 8.41897 15.105L7.98537 15.1898C7.89657 15.2074 7.83737 15.2938 7.85497 15.3818L8.03577 16.3082L7.15737 15.9642C7.07257 15.9314 6.97737 15.9738 6.94377 16.057L6.78297 16.4698C6.75017 16.553 6.79177 16.649 6.87577 16.6818L7.84217 17.0602L7.08857 17.7738C7.02297 17.8362 7.01977 17.9402 7.08297 18.0066L7.38617 18.3274C7.44857 18.393 7.55337 18.3962 7.61897 18.3338L8.30377 17.685L8.48457 18.6114C8.50137 18.6994 8.58857 18.7578 8.67737 18.741L9.11097 18.6562C9.19977 18.6386 9.25817 18.5522 9.24137 18.4634L9.06057 17.5378L9.93817 17.881C10.023 17.9138 10.119 17.873 10.1518 17.7882L10.3134 17.377C10.3462 17.2922 10.3038 17.1962 10.2198 17.1634Z" fill="#26A9E0"/>
<path fill-rule="evenodd" clip-rule="evenodd" d="M14.8006 21.5883L13.835 21.2099L14.5878 20.4979C14.6542 20.4355 14.6566 20.3307 14.5942 20.2651L14.2902 19.9435C14.2286 19.8779 14.1238 19.8747 14.0582 19.9379L13.3734 20.5859L13.1934 19.6603C13.1758 19.5715 13.0886 19.5123 13.0006 19.5307L12.5662 19.6147C12.4774 19.6323 12.4182 19.7187 12.4358 19.8075L12.6166 20.7339L11.7382 20.3899C11.6542 20.3563 11.5582 20.3987 11.5246 20.4827L11.3638 20.8947C11.331 20.9779 11.3726 21.0739 11.4566 21.1067L12.423 21.4851L11.6694 22.1987C11.6038 22.2611 11.6006 22.3659 11.6638 22.4315L11.967 22.7523C12.0294 22.8179 12.1342 22.8211 12.2006 22.7587L12.8846 22.1099L13.0654 23.0363C13.083 23.1251 13.1694 23.1827 13.2582 23.1659L13.6926 23.0811C13.7806 23.0643 13.839 22.9771 13.8222 22.8883L13.6414 21.9635L14.5198 22.3059C14.6038 22.3395 14.6998 22.2979 14.7326 22.2131L14.8942 21.8019C14.927 21.7171 14.8846 21.6211 14.8006 21.5883Z" fill="#26A9E0"/>
<path fill-rule="evenodd" clip-rule="evenodd" d="M14.8006 17.1634L13.835 16.785L14.5878 16.0722C14.6542 16.0106 14.6566 15.9058 14.5942 15.8402L14.2902 15.5186C14.2286 15.453 14.1238 15.4498 14.0582 15.513L13.3734 16.161L13.1934 15.2346C13.1758 15.1466 13.0886 15.0874 13.0006 15.105L12.5662 15.1898C12.4774 15.2074 12.4182 15.2938 12.4358 15.3818L12.6166 16.3082L11.7382 15.9642C11.6542 15.9314 11.5582 15.9738 11.5246 16.057L11.3638 16.4698C11.331 16.553 11.3726 16.649 11.4566 16.6818L12.423 17.0602L11.6694 17.7738C11.6038 17.8362 11.6006 17.9402 11.6638 18.0066L11.967 18.3274C12.0294 18.393 12.1342 18.3962 12.2006 18.3338L12.8846 17.685L13.0654 18.6114C13.083 18.6994 13.1694 18.7578 13.2582 18.741L13.6926 18.6562C13.7806 18.6386 13.839 18.5522 13.8222 18.4634L13.6414 17.5378L14.5198 17.881C14.6038 17.9138 14.6998 17.873 14.7326 17.7882L14.8942 17.377C14.927 17.2922 14.8846 17.1962 14.8006 17.1634Z" fill="#26A9E0"/>
</svg>
